<svg xmlns="http://www.w3.org/2000/svg" xmlns:xlink="http://www.w3.org/1999/xlink" width="50" zoomAndPan="magnify" viewBox="0 0 37.5 37.499999" height="50" preserveAspectRatio="xMidYMid meet" version="1.0"><defs><clipPath id="35c90fce6f"><path d="M 2.050781 2.050781 L 35.800781 2.050781 L 35.800781 35.800781 L 2.050781 35.800781 Z M 2.050781 2.050781 " clip-rule="nonzero"/></clipPath></defs><g clip-path="url(#35c90fce6f)"><path fill="#1a4789" d="M 35.800781 30.667969 C 35.800781 33.5 33.503906 35.796875 30.671875 35.796875 L 7.179688 35.796875 C 4.347656 35.796875 2.050781 33.5 2.050781 30.667969 L 2.050781 7.175781 C 2.050781 4.34375 4.347656 2.046875 7.179688 2.046875 L 30.671875 2.046875 C 33.503906 2.046875 35.800781 4.34375 35.800781 7.175781 Z M 35.800781 30.667969 " fill-opacity="1" fill-rule="nonzero"/></g><path fill="#ffffff" d="M 24.414062 21.542969 L 24.957031 17.3125 L 20.769531 17.3125 L 20.769531 14.609375 C 20.769531 13.386719 21.109375 12.550781 22.867188 12.550781 L 25.105469 12.546875 L 25.105469 8.765625 C 24.71875 8.710938 23.390625 8.597656 21.839844 8.597656 C 18.609375 8.597656 16.398438 10.570312 16.398438 14.191406 L 16.398438 17.3125 L 12.746094 17.3125 L 12.746094 21.542969 L 16.398438 21.542969 L 16.398438 32.402344 L 20.769531 32.402344 L 20.769531 21.542969 Z M 24.414062 21.542969 " fill-opacity="1" fill-rule="nonzero"/></svg>