<svg xmlns="http://www.w3.org/2000/svg" xmlns:xlink="http://www.w3.org/1999/xlink" width="50" zoomAndPan="magnify" viewBox="0 0 37.5 37.499999" height="50" preserveAspectRatio="xMidYMid meet" version="1.0"><path fill="#80af52" d="M 29.011719 8.175781 C 23.054688 2.21875 13.519531 2.097656 7.714844 7.902344 C 2.613281 13 2.089844 20.976562 6.074219 26.878906 L 3.355469 34.222656 L 10.457031 31.210938 C 16.34375 35.089844 24.230469 34.53125 29.289062 29.476562 C 35.09375 23.671875 34.96875 14.136719 29.011719 8.175781 Z M 29.011719 8.175781 " fill-opacity="1" fill-rule="nonzero"/><path fill="#d7deed" d="M 25.691406 22.148438 C 27.085938 22.992188 27.359375 22.929688 27.359375 23.777344 C 27.359375 24.558594 25.539062 27.074219 23.480469 27.078125 C 20.464844 27.074219 17.175781 25.222656 14.589844 22.707031 C 12.074219 20.121094 10.222656 16.828125 10.21875 13.816406 C 10.21875 11.753906 12.738281 9.9375 13.515625 9.9375 C 14.367188 9.9375 14.304688 10.210938 15.144531 11.605469 C 15.613281 12.382812 16.722656 13.839844 16.511719 14.386719 C 16.210938 15.160156 14.386719 16.070312 14.386719 16.628906 C 14.390625 18.480469 18.816406 22.90625 20.667969 22.910156 C 21.222656 22.90625 22.132812 21.082031 22.910156 20.78125 C 23.457031 20.574219 24.914062 21.683594 25.691406 22.148438 Z M 25.691406 22.148438 " fill-opacity="1" fill-rule="nonzero"/></svg>